<svg xmlns="http://www.w3.org/2000/svg" width="1200" height="410" viewBox="0 0 1200 410" role="img" aria-label="Toolkit: silicon, devices, embedded, software and AI tools"><title>Toolkit: silicon, devices, embedded, software and AI tools</title><style>@media (prefers-reduced-motion: reduce){*{animation:none!important}}</style><rect x="1" y="1" width="1198" height="408" rx="18" fill="#f6f8fa" stroke="#d0d7de"/><text x="48" y="58" font-family="-apple-system,BlinkMacSystemFont,'Segoe UI',Helvetica,Arial,sans-serif" font-size="28" font-weight="700" fill="#1f2328">Toolkit</text><text x="48" y="120" font-family="ui-monospace,SFMono-Regular,Menlo,Consolas,'Liberation Mono',monospace" font-size="15" font-weight="700" fill="#b45309">Silicon</text><rect x="190" y="96" width="124" height="36" rx="8" fill="#ffffff" stroke="#d0d7de"/><text x="252" y="119" text-anchor="middle" font-family="-apple-system,BlinkMacSystemFont,'Segoe UI',Helvetica,Arial,sans-serif" font-size="15" fill="#1f2328">SystemVerilog</text><rect x="324" y="96" width="78" height="36" rx="8" fill="#ffffff" stroke="#d0d7de"/><text x="363" y="119" text-anchor="middle" font-family="-apple-system,BlinkMacSystemFont,'Segoe UI',Helvetica,Arial,sans-serif" font-size="15" fill="#1f2328">Verilog</text><rect x="412" y="96" width="56" height="36" rx="8" fill="#ffffff" stroke="#d0d7de"/><text x="440" y="119" text-anchor="middle" font-family="-apple-system,BlinkMacSystemFont,'Segoe UI',Helvetica,Arial,sans-serif" font-size="15" fill="#1f2328">VHDL</text><rect x="478" y="96" width="64" height="36" rx="8" fill="#ffffff" stroke="#d0d7de"/><text x="510" y="119" text-anchor="middle" font-family="-apple-system,BlinkMacSystemFont,'Segoe UI',Helvetica,Arial,sans-serif" font-size="15" fill="#1f2328">Yosys</text><rect x="552" y="96" width="86" height="36" rx="8" fill="#ffffff" stroke="#d0d7de"/><text x="594" y="119" text-anchor="middle" font-family="-apple-system,BlinkMacSystemFont,'Segoe UI',Helvetica,Arial,sans-serif" font-size="15" fill="#1f2328">OpenROAD</text><rect x="648" y="96" width="86" height="36" rx="8" fill="#ffffff" stroke="#d0d7de"/><text x="690" y="119" text-anchor="middle" font-family="-apple-system,BlinkMacSystemFont,'Segoe UI',Helvetica,Arial,sans-serif" font-size="15" fill="#1f2328">OpenLane</text><rect x="744" y="96" width="64" height="36" rx="8" fill="#ffffff" stroke="#d0d7de"/><text x="775" y="119" text-anchor="middle" font-family="-apple-system,BlinkMacSystemFont,'Segoe UI',Helvetica,Arial,sans-serif" font-size="15" fill="#1f2328">Magic</text><rect x="817" y="96" width="71" height="36" rx="8" fill="#ffffff" stroke="#d0d7de"/><text x="852" y="119" text-anchor="middle" font-family="-apple-system,BlinkMacSystemFont,'Segoe UI',Helvetica,Arial,sans-serif" font-size="15" fill="#1f2328">Netgen</text><rect x="898" y="96" width="78" height="36" rx="8" fill="#ffffff" stroke="#d0d7de"/><text x="937" y="119" text-anchor="middle" font-family="-apple-system,BlinkMacSystemFont,'Segoe UI',Helvetica,Arial,sans-serif" font-size="15" fill="#1f2328">NGSpice</text><rect x="986" y="96" width="71" height="36" rx="8" fill="#ffffff" stroke="#d0d7de"/><text x="1022" y="119" text-anchor="middle" font-family="-apple-system,BlinkMacSystemFont,'Segoe UI',Helvetica,Arial,sans-serif" font-size="15" fill="#1f2328">SKY130</text><rect x="1068" y="96" width="78" height="36" rx="8" fill="#ffffff" stroke="#d0d7de"/><text x="1107" y="119" text-anchor="middle" font-family="-apple-system,BlinkMacSystemFont,'Segoe UI',Helvetica,Arial,sans-serif" font-size="15" fill="#1f2328">Cadence</text><text x="48" y="180" font-family="ui-monospace,SFMono-Regular,Menlo,Consolas,'Liberation Mono',monospace" font-size="15" font-weight="700" fill="#b45309">Devices</text><rect x="190" y="156" width="71" height="36" rx="8" fill="#ffffff" stroke="#d0d7de"/><text x="226" y="179" text-anchor="middle" font-family="-apple-system,BlinkMacSystemFont,'Segoe UI',Helvetica,Arial,sans-serif" font-size="15" fill="#1f2328">DEVSIM</text><rect x="271" y="156" width="56" height="36" rx="8" fill="#ffffff" stroke="#d0d7de"/><text x="299" y="179" text-anchor="middle" font-family="-apple-system,BlinkMacSystemFont,'Segoe UI',Helvetica,Arial,sans-serif" font-size="15" fill="#1f2328">TCAD</text><rect x="337" y="156" width="78" height="36" rx="8" fill="#ffffff" stroke="#d0d7de"/><text x="376" y="179" text-anchor="middle" font-family="-apple-system,BlinkMacSystemFont,'Segoe UI',Helvetica,Arial,sans-serif" font-size="15" fill="#1f2328">LTspice</text><rect x="426" y="156" width="71" height="36" rx="8" fill="#ffffff" stroke="#d0d7de"/><text x="461" y="179" text-anchor="middle" font-family="-apple-system,BlinkMacSystemFont,'Segoe UI',Helvetica,Arial,sans-serif" font-size="15" fill="#1f2328">PSPICE</text><rect x="506" y="156" width="71" height="36" rx="8" fill="#ffffff" stroke="#d0d7de"/><text x="542" y="179" text-anchor="middle" font-family="-apple-system,BlinkMacSystemFont,'Segoe UI',Helvetica,Arial,sans-serif" font-size="15" fill="#1f2328">MATLAB</text><rect x="588" y="156" width="64" height="36" rx="8" fill="#ffffff" stroke="#d0d7de"/><text x="619" y="179" text-anchor="middle" font-family="-apple-system,BlinkMacSystemFont,'Segoe UI',Helvetica,Arial,sans-serif" font-size="15" fill="#1f2328">NumPy</text><rect x="661" y="156" width="71" height="36" rx="8" fill="#ffffff" stroke="#d0d7de"/><text x="696" y="179" text-anchor="middle" font-family="-apple-system,BlinkMacSystemFont,'Segoe UI',Helvetica,Arial,sans-serif" font-size="15" fill="#1f2328">Pandas</text><text x="48" y="240" font-family="ui-monospace,SFMono-Regular,Menlo,Consolas,'Liberation Mono',monospace" font-size="15" font-weight="700" fill="#b45309">Embedded</text><rect x="190" y="216" width="78" height="36" rx="8" fill="#ffffff" stroke="#d0d7de"/><text x="229" y="239" text-anchor="middle" font-family="-apple-system,BlinkMacSystemFont,'Segoe UI',Helvetica,Arial,sans-serif" font-size="15" fill="#1f2328">C / C++</text><rect x="278" y="216" width="78" height="36" rx="8" fill="#ffffff" stroke="#d0d7de"/><text x="318" y="239" text-anchor="middle" font-family="-apple-system,BlinkMacSystemFont,'Segoe UI',Helvetica,Arial,sans-serif" font-size="15" fill="#1f2328">Arduino</text><rect x="367" y="216" width="64" height="36" rx="8" fill="#ffffff" stroke="#d0d7de"/><text x="399" y="239" text-anchor="middle" font-family="-apple-system,BlinkMacSystemFont,'Segoe UI',Helvetica,Arial,sans-serif" font-size="15" fill="#1f2328">ESP32</text><rect x="440" y="216" width="78" height="36" rx="8" fill="#ffffff" stroke="#d0d7de"/><text x="480" y="239" text-anchor="middle" font-family="-apple-system,BlinkMacSystemFont,'Segoe UI',Helvetica,Arial,sans-serif" font-size="15" fill="#1f2328">ESP8266</text><rect x="529" y="216" width="64" height="36" rx="8" fill="#ffffff" stroke="#d0d7de"/><text x="561" y="239" text-anchor="middle" font-family="-apple-system,BlinkMacSystemFont,'Segoe UI',Helvetica,Arial,sans-serif" font-size="15" fill="#1f2328">KiCad</text><rect x="602" y="216" width="116" height="36" rx="8" fill="#ffffff" stroke="#d0d7de"/><text x="660" y="239" text-anchor="middle" font-family="-apple-system,BlinkMacSystemFont,'Segoe UI',Helvetica,Arial,sans-serif" font-size="15" fill="#1f2328">Oscilloscope</text><text x="48" y="300" font-family="ui-monospace,SFMono-Regular,Menlo,Consolas,'Liberation Mono',monospace" font-size="15" font-weight="700" fill="#0f766e">Software</text><rect x="190" y="276" width="101" height="36" rx="8" fill="#ffffff" stroke="#d0d7de"/><text x="240" y="299" text-anchor="middle" font-family="-apple-system,BlinkMacSystemFont,'Segoe UI',Helvetica,Arial,sans-serif" font-size="15" fill="#1f2328">TypeScript</text><rect x="301" y="276" width="71" height="36" rx="8" fill="#ffffff" stroke="#d0d7de"/><text x="336" y="299" text-anchor="middle" font-family="-apple-system,BlinkMacSystemFont,'Segoe UI',Helvetica,Arial,sans-serif" font-size="15" fill="#1f2328">Python</text><rect x="382" y="276" width="41" height="36" rx="8" fill="#ffffff" stroke="#d0d7de"/><text x="402" y="299" text-anchor="middle" font-family="-apple-system,BlinkMacSystemFont,'Segoe UI',Helvetica,Arial,sans-serif" font-size="15" fill="#1f2328">C#</text><rect x="433" y="276" width="78" height="36" rx="8" fill="#ffffff" stroke="#d0d7de"/><text x="472" y="299" text-anchor="middle" font-family="-apple-system,BlinkMacSystemFont,'Segoe UI',Helvetica,Arial,sans-serif" font-size="15" fill="#1f2328">Next.js</text><rect x="522" y="276" width="116" height="36" rx="8" fill="#ffffff" stroke="#d0d7de"/><text x="580" y="299" text-anchor="middle" font-family="-apple-system,BlinkMacSystemFont,'Segoe UI',Helvetica,Arial,sans-serif" font-size="15" fill="#1f2328">React Native</text><rect x="648" y="276" width="56" height="36" rx="8" fill="#ffffff" stroke="#d0d7de"/><text x="676" y="299" text-anchor="middle" font-family="-apple-system,BlinkMacSystemFont,'Segoe UI',Helvetica,Arial,sans-serif" font-size="15" fill="#1f2328">.NET</text><rect x="714" y="276" width="78" height="36" rx="8" fill="#ffffff" stroke="#d0d7de"/><text x="753" y="299" text-anchor="middle" font-family="-apple-system,BlinkMacSystemFont,'Segoe UI',Helvetica,Arial,sans-serif" font-size="15" fill="#1f2328">FastAPI</text><rect x="802" y="276" width="86" height="36" rx="8" fill="#ffffff" stroke="#d0d7de"/><text x="845" y="299" text-anchor="middle" font-family="-apple-system,BlinkMacSystemFont,'Segoe UI',Helvetica,Arial,sans-serif" font-size="15" fill="#1f2328">Supabase</text><rect x="898" y="276" width="86" height="36" rx="8" fill="#ffffff" stroke="#d0d7de"/><text x="941" y="299" text-anchor="middle" font-family="-apple-system,BlinkMacSystemFont,'Segoe UI',Helvetica,Arial,sans-serif" font-size="15" fill="#1f2328">Firebase</text><rect x="994" y="276" width="71" height="36" rx="8" fill="#ffffff" stroke="#d0d7de"/><text x="1030" y="299" text-anchor="middle" font-family="-apple-system,BlinkMacSystemFont,'Segoe UI',Helvetica,Arial,sans-serif" font-size="15" fill="#1f2328">Docker</text><rect x="1075" y="276" width="48" height="36" rx="8" fill="#ffffff" stroke="#d0d7de"/><text x="1099" y="299" text-anchor="middle" font-family="-apple-system,BlinkMacSystemFont,'Segoe UI',Helvetica,Arial,sans-serif" font-size="15" fill="#1f2328">Git</text><text x="48" y="360" font-family="ui-monospace,SFMono-Regular,Menlo,Consolas,'Liberation Mono',monospace" font-size="15" font-weight="700" fill="#0f766e">AI</text><rect x="190" y="336" width="94" height="36" rx="8" fill="#ffffff" stroke="#d0d7de"/><text x="237" y="359" text-anchor="middle" font-family="-apple-system,BlinkMacSystemFont,'Segoe UI',Helvetica,Arial,sans-serif" font-size="15" fill="#1f2328">LangChain</text><rect x="294" y="336" width="94" height="36" rx="8" fill="#ffffff" stroke="#d0d7de"/><text x="340" y="359" text-anchor="middle" font-family="-apple-system,BlinkMacSystemFont,'Segoe UI',Helvetica,Arial,sans-serif" font-size="15" fill="#1f2328">LangGraph</text><rect x="397" y="336" width="48" height="36" rx="8" fill="#ffffff" stroke="#d0d7de"/><text x="421" y="359" text-anchor="middle" font-family="-apple-system,BlinkMacSystemFont,'Segoe UI',Helvetica,Arial,sans-serif" font-size="15" fill="#1f2328">RAG</text><rect x="456" y="336" width="86" height="36" rx="8" fill="#ffffff" stroke="#d0d7de"/><text x="498" y="359" text-anchor="middle" font-family="-apple-system,BlinkMacSystemFont,'Segoe UI',Helvetica,Arial,sans-serif" font-size="15" fill="#1f2328">pgvector</text><rect x="552" y="336" width="116" height="36" rx="8" fill="#ffffff" stroke="#d0d7de"/><text x="610" y="359" text-anchor="middle" font-family="-apple-system,BlinkMacSystemFont,'Segoe UI',Helvetica,Arial,sans-serif" font-size="15" fill="#1f2328">scikit-learn</text></svg>
